PathFileType	4	(X/Y/Z)	C:\Git\research_data\torsion_deformities_healthy_kinematics\simulations\P01\post\Stand01\marker_experimental_HJC.trc
DataRate	CameraRate	NumFrames	NumMarkers	Units	OrigDataRate	OrigDataStartFrame	OrigNumFrames
150	150	2	231	mm	150	38	150
Frame#	Time	LFHD			LBHD			RFHD			RBHD			C7			T10			CLAV			STRN			RBAK			LSHO			LUPA			LELB			LFRA			LWRB			LWRA			LFIN			RSHO			RUPA			RELB			RFRA			RWRB			RWRA			RFIN			SACR			LASI			RASI			LT1			LT2			LT3			LS1			LS2			LS3			LHEE			LTOE			RT1			RT2			RT3			RS1			RS2			RS3			RHEE			RTOE			PELO			PELA			PELL			PELP			SACO			SACA			SACL			SACP			LFEO			LFEA			LFEL			LFEP			RFEO			RFEA			RFEL			RFEP			LTIO			LTIA			LTIL			LTIP			RTIO			RTIA			RTIL			RTIP			LFOO			LFOA			LFOL			LFOP			RFOO			RFOA			RFOL			RFOP			LTOO			LTOA			LTOL			LTOP			RTOO			RTOA			RTOL			RTOP			HEDO			HEDA			HEDL			HEDP			LCLO			LCLA			LCLL			LCLP			RCLO			RCLA			RCLL			RCLP			TRXO			TRXA			TRXL			TRXP			LHUO			LHUA			LHUL			LHUP			LRAO			LRAA			LRAL			LRAP			LHNO			LHNA			LHNL			LHNP			RHUO			RHUA			RHUL			RHUP			RRAO			RRAA			RRAL			RRAP			RHNO			RHNA			RHNL			RHNP			LPelvisAngles			RPelvisAngles			LFootProgressAngles			RFootProgressAngles			LHipAngles			RHipAngles			LKneeAngles			RKneeAngles			LAnkleAngles			RAnkleAngles			LFFootAngles			RFFootAngles			LAbsAnkleAngle			RAbsAnkleAngle			RNeckAngles			LNeckAngles			RSpineAngles			LSpineAngles			LShoulderAngles			LElbowAngles			LWristAngles			RShoulderAngles			RElbowAngles			RWristAngles			RThoraxAngles			LThoraxAngles			RHeadAngles			LHeadAngles			LHipPower			LKneePower			LAnklePower			RHipPower			RKneePower			RAnklePower			LWaistPower			RWaistPower			LNeckPower			RNeckPower			LShoulderPower			RShoulderPower			LElbowPower			RElbowPower			LWristPower			RWristPower			F_ForcePlate1			F_ForcePlate2			F_ForcePlate3			LGRF			RGRF			LHipForce			RHipForce			LKneeForce			RKneeForce			LAnkleForce			RAnkleForce			LWaistForce			RWaistForce			LNeckForce			RNeckForce			LShoulderForce			RShoulderForce			LElbowForce			RElbowForce			LWristForce			RWristForce			LNormalisedGRF			RNormalisedGRF			LGroundReactionForce			RGroundReactionForce			LHipMoment			RHipMoment			LKneeMoment			RKneeMoment			LAnkleMoment			RAnkleMoment			LWaistMoment			RWaistMoment			LNeckMoment			RNeckMoment			LShoulderMoment			RShoulderMoment			LElbowMoment			RElbowMoment			LWristMoment			RWristMoment			LKNE			RKNE			LANK			RANK			LKJC			RKJC			LAJC			RAJC			LTHI			RTHI			LTIB			RTIB			P_ForcePlate1			P_ForcePlate2			P_ForcePlate3			CentreOfMass			CentreOfMassFloor			funktRKJC			funktLKJC			funktRHIP			funktLHIP			LHJC			RHJC			LHF		
		X1	Y1	Z1	X2	Y2	Z2	X3	Y3	Z3	X4	Y4	Z4	X5	Y5	Z5	X6	Y6	Z6	X7	Y7	Z7	X8	Y8	Z8	X9	Y9	Z9	X10	Y10	Z10	X11	Y11	Z11	X12	Y12	Z12	X13	Y13	Z13	X14	Y14	Z14	X15	Y15	Z15	X16	Y16	Z16	X17	Y17	Z17	X18	Y18	Z18	X19	Y19	Z19	X20	Y20	Z20	X21	Y21	Z21	X22	Y22	Z22	X23	Y23	Z23	X24	Y24	Z24	X25	Y25	Z25	X26	Y26	Z26	X27	Y27	Z27	X28	Y28	Z28	X29	Y29	Z29	X30	Y30	Z30	X31	Y31	Z31	X32	Y32	Z32	X33	Y33	Z33	X34	Y34	Z34	X35	Y35	Z35	X36	Y36	Z36	X37	Y37	Z37	X38	Y38	Z38	X39	Y39	Z39	X40	Y40	Z40	X41	Y41	Z41	X42	Y42	Z42	X43	Y43	Z43	X44	Y44	Z44	X45	Y45	Z45	X46	Y46	Z46	X47	Y47	Z47	X48	Y48	Z48	X49	Y49	Z49	X50	Y50	Z50	X51	Y51	Z51	X52	Y52	Z52	X53	Y53	Z53	X54	Y54	Z54	X55	Y55	Z55	X56	Y56	Z56	X57	Y57	Z57	X58	Y58	Z58	X59	Y59	Z59	X60	Y60	Z60	X61	Y61	Z61	X62	Y62	Z62	X63	Y63	Z63	X64	Y64	Z64	X65	Y65	Z65	X66	Y66	Z66	X67	Y67	Z67	X68	Y68	Z68	X69	Y69	Z69	X70	Y70	Z70	X71	Y71	Z71	X72	Y72	Z72	X73	Y73	Z73	X74	Y74	Z74	X75	Y75	Z75	X76	Y76	Z76	X77	Y77	Z77	X78	Y78	Z78	X79	Y79	Z79	X80	Y80	Z80	X81	Y81	Z81	X82	Y82	Z82	X83	Y83	Z83	X84	Y84	Z84	X85	Y85	Z85	X86	Y86	Z86	X87	Y87	Z87	X88	Y88	Z88	X89	Y89	Z89	X90	Y90	Z90	X91	Y91	Z91	X92	Y92	Z92	X93	Y93	Z93	X94	Y94	Z94	X95	Y95	Z95	X96	Y96	Z96	X97	Y97	Z97	X98	Y98	Z98	X99	Y99	Z99	X100	Y100	Z100	X101	Y101	Z101	X102	Y102	Z102	X103	Y103	Z103	X104	Y104	Z104	X105	Y105	Z105	X106	Y106	Z106	X107	Y107	Z107	X108	Y108	Z108	X109	Y109	Z109	X110	Y110	Z110	X111	Y111	Z111	X112	Y112	Z112	X113	Y113	Z113	X114	Y114	Z114	X115	Y115	Z115	X116	Y116	Z116	X117	Y117	Z117	X118	Y118	Z118	X119	Y119	Z119	X120	Y120	Z120	X121	Y121	Z121	X122	Y122	Z122	X123	Y123	Z123	X124	Y124	Z124	X125	Y125	Z125	X126	Y126	Z126	X127	Y127	Z127	X128	Y128	Z128	X129	Y129	Z129	X130	Y130	Z130	X131	Y131	Z131	X132	Y132	Z132	X133	Y133	Z133	X134	Y134	Z134	X135	Y135	Z135	X136	Y136	Z136	X137	Y137	Z137	X138	Y138	Z138	X139	Y139	Z139	X140	Y140	Z140	X141	Y141	Z141	X142	Y142	Z142	X143	Y143	Z143	X144	Y144	Z144	X145	Y145	Z145	X146	Y146	Z146	X147	Y147	Z147	X148	Y148	Z148	X149	Y149	Z149	X150	Y150	Z150	X151	Y151	Z151	X152	Y152	Z152	X153	Y153	Z153	X154	Y154	Z154	X155	Y155	Z155	X156	Y156	Z156	X157	Y157	Z157	X158	Y158	Z158	X159	Y159	Z159	X160	Y160	Z160	X161	Y161	Z161	X162	Y162	Z162	X163	Y163	Z163	X164	Y164	Z164	X165	Y165	Z165	X166	Y166	Z166	X167	Y167	Z167	X168	Y168	Z168	X169	Y169	Z169	X170	Y170	Z170	X171	Y171	Z171	X172	Y172	Z172	X173	Y173	Z173	X174	Y174	Z174	X175	Y175	Z175	X176	Y176	Z176	X177	Y177	Z177	X178	Y178	Z178	X179	Y179	Z179	X180	Y180	Z180	X181	Y181	Z181	X182	Y182	Z182	X183	Y183	Z183	X184	Y184	Z184	X185	Y185	Z185	X186	Y186	Z186	X187	Y187	Z187	X188	Y188	Z188	X189	Y189	Z189	X190	Y190	Z190	X191	Y191	Z191	X192	Y192	Z192	X193	Y193	Z193	X194	Y194	Z194	X195	Y195	Z195	X196	Y196	Z196	X197	Y197	Z197	X198	Y198	Z198	X199	Y199	Z199	X200	Y200	Z200	X201	Y201	Z201	X202	Y202	Z202	X203	Y203	Z203	X204	Y204	Z204	X205	Y205	Z205	X206	Y206	Z206	X207	Y207	Z207	X208	Y208	Z208	X209	Y209	Z209	X210	Y210	Z210	X211	Y211	Z211	X212	Y212	Z212	X213	Y213	Z213	X214	Y214	Z214	X215	Y215	Z215	X216	Y216	Z216	X217	Y217	Z217	X218	Y218	Z218	X219	Y219	Z219	X220	Y220	Z220	X221	Y221	Z221	X222	Y222	Z222	X223	Y223	Z223	X224	Y224	Z224	X225	Y225	Z225	X226	Y226	Z226	X227	Y227	Z227	X228	Y228	Z228	X229	Y229	Z229	X230	Y230	Z230	X231	Y231	Z231	

38	0.246667	-334.657410	1545.738770	1296.735718	-332.554718	1521.530884	1157.458618	-461.289246	1543.285889	1303.704956	-483.474152	1518.604004	1177.882446	-400.176148	1406.568726	1146.781616	-392.984985	1226.266846	1083.782715	-406.870361	1338.856445	1264.054199	-408.045868	1302.488403	1284.586548	-507.491425	1268.153076	1073.795410	-254.044861	1379.901367	1180.647583	-145.878311	1189.304443	1151.340698	-88.586754	1113.688477	1171.869263	-42.403454	1070.387573	1193.191650	46.965031	939.564270	1269.661865	20.328772	947.658813	1333.604248	75.741096	898.753906	1351.379395	-554.477661	1368.204956	1172.629639	-622.497925	1282.251587	1153.094360	-694.368347	1093.510986	1141.876099	-818.314941	953.031433	1196.708618	-843.907043	910.803406	1214.680298	-843.936768	936.293152	1280.379272	-902.613709	884.773804	1289.122070	-393.687195	971.542541	1078.846313	-254.245453	934.565674	1265.500000	-540.404785	934.402283	1256.663818	-206.175613	643.835388	1235.858154	-191.032638	553.371216	1154.873169	-235.287796	567.389221	1290.476685	-202.842331	258.329987	1178.390503	-188.045013	179.500885	1086.449097	-227.554932	178.684235	1223.074585	-275.451874	39.301395	1091.286621	-226.280655	38.908527	1252.077637	-583.566467	661.137695	1195.307739	-555.096924	589.472412	1098.257935	-582.509155	572.440735	1238.362427	-577.094055	267.607483	1153.068237	-555.257202	202.693207	1053.015625	-571.224365	182.513550	1192.915894	-495.257416	41.182671	1085.100830	-539.765137	39.950600	1246.207397	-395.234833	848.857300	1195.943115	-395.690185	845.845764	1210.746948	-382.645935	848.864441	1196.331787	-396.079529	972.280762	1221.025024	-393.530121	959.580017	1137.716797	-393.719910	958.325195	1143.885132	-387.235657	959.583618	1137.911255	-393.952698	1021.291809	1150.257568	-281.587921	469.838043	1217.356323	-274.786194	472.671478	1254.939453	-244.240784	474.469147	1210.248169	-332.292572	848.956238	1197.950562	-498.517059	474.118225	1205.085938	-505.676453	475.989258	1242.049561	-461.726593	470.374481	1212.401245	-458.177094	848.758301	1193.935669	-266.348572	45.420231	1149.458374	-248.327423	40.709080	1182.951660	-231.426300	49.586426	1131.254395	-280.380829	436.220917	1211.978271	-505.392304	50.485477	1141.854980	-521.035950	45.388485	1177.704590	-469.187622	47.601036	1157.243408	-499.061615	440.563232	1200.077637	-227.015808	49.244411	1252.783813	-227.962448	62.553707	1253.693237	-214.263809	50.414955	1248.926758	-266.196228	55.185509	1125.051147	-539.415527	50.114971	1247.152710	-538.962341	63.292053	1248.378174	-526.637146	49.360298	1250.541870	-504.990845	60.781002	1119.734253	-214.152405	47.640411	1294.825073	-214.451340	51.843346	1295.112305	-210.125458	48.010063	1293.607056	-226.525116	49.516781	1254.488525	-550.727478	46.953114	1289.098877	-550.584412	51.114307	1289.485962	-546.692200	46.714806	1290.169189	-539.856445	50.321785	1248.861694	-409.582947	1443.573730	1126.254028	-392.802978	1484.423950	1347.759888	-184.494125	1448.702637	1108.256714	-417.867859	1665.655151	1085.925293	-257.710938	1333.122070	1177.953125	-179.241425	1318.415039	1326.520630	-244.555237	1500.989624	1187.622192	-406.423889	1340.212036	1257.201294	-546.766479	1321.920532	1169.930054	-631.658447	1299.541138	1311.137085	-519.486389	1158.178467	1160.379639	-406.423859	1340.212036	1257.201294	-406.423859	1340.212036	1257.201294	-417.105865	1307.781982	1421.150146	-573.487183	1337.800537	1245.839355	-401.862793	1175.933228	1225.003174	-120.631409	1095.279419	1170.067383	-208.325134	1053.253174	913.229431	-341.857819	964.563049	1266.991089	-257.710938	1333.122070	1177.953125	29.314184	938.229614	1300.509521	35.508125	791.293457	1116.481201	-160.450119	826.103272	1383.649048	-110.135231	1084.285889	1179.198242	94.915924	833.319885	1392.027222	207.006882	933.123352	1426.086182	177.482086	781.182190	1273.074951	29.314217	938.229614	1300.509521	-662.383728	1077.643555	1151.582153	-501.463440	1017.203796	942.233276	-847.079590	1177.898315	980.668030	-546.766541	1321.920532	1169.930054	-839.015747	918.894104	1249.337769	-779.510071	753.259399	1087.875854	-1001.868042	1007.291992	1098.637207	-674.747925	1066.531006	1158.425049	-936.426758	826.793213	1336.940674	-1059.744995	922.024963	1299.937012	-905.613647	916.760315	1465.790161	-839.015686	918.894165	1249.337769	-0.384388	1.726695	-11.487141	0.384388	-1.726695	-11.487141	-4.245516	-17.035410	-2.662934	-2.031257	-15.068306	-4.785079	7.661988	-12.105598	-14.186109	6.120173	-9.233194	-13.387728	-3.180050	-16.374371	-12.825274	-3.089932	-11.428304	-11.013818	0.642490	10.682156	-5.639395	0.303852	8.202593	-3.371195	-0.000000	-0.000000	0.000000	-0.000000	0.000000	-0.000000	0.000000	0.000000	-9.258298	0.000000	0.000000	-8.690973	1.156679	-8.395231	21.347511	-1.156679	8.395231	21.347511	-1.199254	1.921682	0.322134	1.199254	-1.921682	0.322134	-29.101101	-29.467472	-6.186262	0.000000	-0.000000	-35.151443	11.008514	123.634552	-1.643214	-26.583803	-40.685398	-7.790205	-0.000000	0.000000	-34.390892	8.236811	115.812431	-7.110785	1.560681	-3.658503	-11.089204	-1.560681	3.658503	-11.089204	2.102109	4.263379	-10.292433	-2.102109	-4.263379	-10.292433	0.000000	0.000331	0.000000	-0.000000	-0.000203	-0.000000	0.000000	0.000020	0.000000	-0.000000	-0.000222	-0.000000	-0.000000	-0.000051	-0.000000	0.000000	0.000007	0.000000	0.000000	0.000429	0.000000	0.000000	0.000429	0.000000	0.000000	0.001010	0.000000	0.000000	0.001010	0.000000	-0.000000	-0.000196	-0.000000	0.000000	0.000273	0.000000	0.000000	0.000014	0.000000	-0.000000	-0.000051	-0.000000	-0.000000	-0.000018	-0.000000	0.000000	0.000022	0.000000	-398.021027	1.304700	259.089996	-231.415008	1.697000	-251.317001	-396.987000	4.582600	-949.962036	0.000000	0.000000	0.000000	0.000000	0.000000	0.000000	-0.191470	1.563553	-0.116654	0.156592	1.569625	-0.077990	-0.063022	0.590543	0.073475	0.043748	0.591736	0.077389	-0.012456	-0.006308	0.141555	0.008108	-0.011458	0.141551	-0.003741	4.460431	0.908711	-0.003741	4.460431	0.908711	-0.131278	8.844928	1.750422	-0.131278	8.844928	1.750422	0.233922	0.424988	0.074738	-0.181260	0.442204	0.109262	0.103016	0.133940	0.134609	-0.079417	0.133331	0.149689	0.019890	0.040178	-0.038271	-0.033224	0.033767	-0.034805	0.000000	0.000000	0.000000	0.000000	0.000000	0.000000	0.000000	0.000000	0.000000	0.000000	0.000000	0.000000	-58.766968	-2.543004	15.085742	-46.054584	-1.672707	6.210759	-15.027238	0.794726	10.072320	-10.354606	0.539805	11.012763	-1.302669	0.726276	7.593822	-0.935289	0.508951	7.563557	-14.321813	-2.852008	-68.603348	14.321813	2.852008	-68.603348	-77.877113	-29.402691	930.087158	77.877113	29.402691	930.087158	-57.201168	-9.871283	36.196888	-43.835007	-7.680483	45.514362	-16.497780	-0.456021	22.134027	-12.843931	-0.515958	25.245102	-1.160632	0.000000	-2.237702	-2.022566	0.000000	-2.112228	-226.848541	480.047760	1206.679932	-552.448547	482.261139	1194.227783	-230.515350	46.444138	1130.322266	-541.697937	47.025211	1125.520386	-281.587921	469.838013	1217.356323	-498.517059	474.118225	1205.085815	-266.499451	49.622387	1150.130615	-505.324249	54.679863	1142.480957	-194.898804	673.290466	1186.328979	-588.718384	672.669495	1177.564453	-168.597900	253.319092	1126.106201	-610.841125	254.177628	1124.800781	-398.021027	1.304700	259.089996	-231.415008	1.697000	-251.317001	-396.987000	4.582600	-949.962036	-397.927734	934.363342	1234.834106	-397.927734	0.000000	1234.834106	0.000000	0.000000	0.000000	0.000000	0.000000	0.000000	0.000000	0.000000	0.000000	0.000000	0.000000	0.000000	-293.303316	850.561654	1191.526997	-496.761518	850.445483	1185.244505	-0.191470	1.563553	-0.116654	
39	0.253333	-334.646851	1545.733154	1296.787109	-332.559753	1521.530640	1157.509521	-461.280579	1543.278564	1303.775146	-483.477539	1518.599854	1177.951172	-400.178803	1406.564209	1146.839844	-392.990173	1226.263794	1083.836548	-406.861664	1338.849854	1264.112671	-408.034943	1302.481201	1284.642700	-507.499481	1268.146484	1073.864990	-254.044113	1379.896851	1180.688354	-145.882294	1189.298584	1151.370361	-88.588577	1113.682251	1171.892944	-42.403858	1070.380737	1193.210571	46.970127	939.556763	1269.673706	20.339294	947.650940	1333.618774	75.749809	898.743530	1351.387573	-554.476685	1368.197998	1172.697510	-622.497375	1282.244751	1153.163940	-694.367004	1093.505859	1141.945190	-818.313660	953.029846	1196.775757	-843.907715	910.801636	1214.748901	-843.934875	936.289856	1280.445068	-902.614563	884.775391	1289.192017	-393.688416	971.547974	1078.910278	-254.251007	934.553101	1265.562866	-540.413574	934.397949	1256.716309	-206.186249	643.830261	1235.909668	-191.037003	553.372437	1154.907837	-235.298553	567.378113	1290.511841	-202.845627	258.329773	1178.402588	-188.047119	179.506683	1086.457275	-227.558899	178.680679	1223.082153	-275.453369	39.303604	1091.284302	-226.281265	38.908276	1252.076660	-583.573120	661.135864	1195.338135	-555.097595	589.478027	1098.284790	-582.517700	572.435120	1238.387695	-577.094788	267.608337	1153.074219	-555.254639	202.699448	1053.022705	-571.225769	182.512039	1192.920654	-495.256531	41.186192	1085.101074	-539.768188	39.948502	1246.208130	-395.241913	848.854004	1195.994019	-395.697906	845.841309	1210.797485	-382.653015	848.860840	1196.383179	-396.084595	972.275391	1221.085815	-393.532196	959.581360	1137.776733	-393.722198	958.326111	1143.944824	-387.237762	959.584778	1137.971313	-393.953522	1021.292114	1150.322510	-281.592316	469.834198	1217.370361	-274.793457	472.663452	1254.953979	-244.244965	474.466492	1210.265503	-332.299591	848.951294	1198.003662	-498.523071	474.116303	1205.109009	-505.684631	475.985016	1242.072388	-461.733063	470.372253	1212.426270	-458.184052	848.756714	1193.984253	-266.351562	45.421574	1149.458496	-248.330856	40.709343	1182.951660	-231.429367	49.588425	1131.255127	-280.385193	436.217438	1211.991089	-505.391357	50.486904	1141.860596	-521.035950	45.388256	1177.709473	-469.187164	47.602264	1157.250000	-499.067078	440.561401	1200.099365	-227.016525	49.244137	1252.783081	-227.963333	62.553398	1253.692749	-214.264648	50.414932	1248.925781	-266.199768	55.187107	1125.051270	-539.418701	50.112843	1247.153809	-538.965637	63.289886	1248.379761	-526.640503	49.358143	1250.543579	-504.987976	60.783577	1119.737305	-214.152145	47.639446	1294.824097	-214.451111	51.842373	1295.111328	-210.125229	48.009148	1293.605957	-226.526016	49.515980	1254.487671	-550.732605	46.949429	1289.099365	-550.589539	51.110603	1289.486572	-546.697388	46.711090	1290.169800	-539.859802	50.319477	1248.862549	-409.589905	1443.573242	1126.312378	-392.787109	1484.415894	1347.817993	-184.503128	1448.707397	1108.291260	-417.883697	1665.655884	1085.992432	-257.710510	1333.117676	1177.993042	-179.222717	1318.406494	1326.552612	-244.553406	1500.986694	1187.665161	-406.415772	1340.205566	1257.259766	-546.764832	1321.913818	1169.996216	-631.648132	1299.528809	1311.209229	-519.482178	1158.171021	1160.439453	-406.415772	1340.205566	1257.259766	-406.415772	1340.205566	1257.259766	-417.083191	1307.770508	1421.210205	-573.481690	1337.791870	1245.912109	-401.854950	1175.926147	1225.056274	-120.633553	1095.273438	1170.093750	-208.349670	1053.249878	913.262573	-341.853272	964.558106	1267.035522	-257.710480	1333.117676	1177.993042	29.321869	938.221924	1300.522949	35.499409	791.286316	1116.493530	-160.436569	826.096558	1383.677979	-110.136673	1084.279907	1179.223755	94.923843	833.308350	1392.031128	207.020599	933.103088	1426.083252	177.476288	781.170288	1273.073364	29.321754	938.221985	1300.522949	-662.382507	1077.638428	1151.651733	-501.459473	1017.193298	942.308472	-847.073486	1177.889893	980.732666	-546.764832	1321.913818	1169.996216	-839.015259	918.891418	1249.404785	-779.505981	753.255737	1087.947998	-1001.862854	1007.286072	1098.700317	-674.746826	1066.526123	1158.494385	-936.430237	826.797424	1337.013062	-1059.744629	922.037476	1300.011719	-905.606690	916.765381	1465.861450	-839.015259	918.891418	1249.404785	-0.383319	1.729007	-11.491727	0.383319	-1.729007	-11.491727	-4.246184	-17.036760	-2.663893	-2.030589	-15.071000	-4.787270	7.664027	-12.103301	-14.184503	6.118432	-9.234449	-13.388603	-3.182068	-16.378311	-12.821225	-3.090385	-11.426802	-11.012685	0.642386	10.680209	-5.640154	0.303821	8.201529	-3.371536	0.000000	-0.000000	0.000000	-0.000000	0.000000	-0.000000	0.000000	0.000000	-9.258925	0.000000	0.000000	-8.691622	1.156571	-8.396438	21.347069	-1.156571	8.396438	21.347069	-1.200391	1.914227	0.325007	1.200391	-1.914227	0.325007	-29.099863	-29.467783	-6.187530	0.000000	0.000000	-35.151718	11.010786	123.634018	-1.641450	-26.584587	-40.692326	-7.790231	-0.000000	-0.000000	-34.390209	8.236912	115.815895	-7.113931	1.560599	-3.653437	-11.090957	-1.560599	3.653437	-11.090957	2.104385	4.269228	-10.290185	-2.104385	-4.269228	-10.290185	0.000000	0.000324	0.000000	-0.000000	-0.000200	-0.000000	0.000000	0.000020	0.000000	-0.000000	-0.000216	-0.000000	-0.000000	-0.000051	-0.000000	0.000000	0.000008	0.000000	0.000000	0.000431	0.000000	0.000000	0.000431	0.000000	0.000000	0.001091	0.000000	0.000000	0.001091	0.000000	-0.000000	-0.000192	-0.000000	0.000000	0.000257	0.000000	0.000000	0.000014	0.000000	-0.000000	-0.000041	-0.000000	-0.000000	-0.000017	-0.000000	0.000000	0.000022	0.000000	-398.021027	1.304700	259.089996	-231.415008	1.697000	-251.317001	-396.987000	4.582600	-949.962036	0.000000	0.000000	0.000000	0.000000	0.000000	0.000000	-0.191522	1.563558	-0.116485	0.156604	1.569630	-0.077884	-0.063031	0.590539	0.073490	0.043752	0.591733	0.077417	-0.012459	-0.006310	0.141555	0.008108	-0.011463	0.141551	-0.003610	4.460358	0.909066	-0.003610	4.460358	0.909066	-0.131399	8.844872	1.750684	-0.131399	8.844872	1.750684	0.233920	0.424990	0.074733	-0.181258	0.442203	0.109269	0.103015	0.133941	0.134608	-0.079418	0.133331	0.149688	0.019891	0.040180	-0.038268	-0.033222	0.033765	-0.034808	0.000000	0.000000	0.000000	0.000000	0.000000	0.000000	0.000000	0.000000	0.000000	0.000000	0.000000	0.000000	-58.779736	-2.542837	15.039268	-46.057369	-1.672960	6.178410	-15.029753	0.794885	10.075937	-10.355474	0.539841	11.019456	-1.302698	0.726422	7.593764	-0.935264	0.508984	7.563248	-14.315066	-2.853642	-68.708801	14.315066	2.853642	-68.708801	-77.848587	-29.407671	929.941040	77.848587	29.407671	929.941040	-57.200062	-9.871212	36.196026	-43.835110	-7.680664	45.514515	-16.497511	-0.456045	22.133789	-12.844369	-0.516026	25.244396	-1.160682	-0.000000	-2.237469	-2.022436	-0.000000	-2.112407	-226.852600	480.047577	1206.699097	-552.454041	482.259613	1194.248413	-230.518127	46.446468	1130.322754	-541.696411	47.026623	1125.524780	-281.592316	469.834167	1217.370361	-498.523071	474.116303	1205.109131	-266.502472	49.623680	1150.130859	-505.323425	54.681255	1142.486816	-194.904007	673.289673	1186.372559	-588.723633	672.668640	1177.594849	-168.601761	253.320007	1126.114624	-610.841858	254.178101	1124.811768	-398.021027	1.304700	259.089996	-231.415008	1.697000	-251.317001	-396.987000	4.582600	-949.962036	-397.926148	934.358582	1234.876465	-397.926148	0.000000	1234.876465	0.000000	0.000000	0.000000	0.000000	0.000000	0.000000	0.000000	0.000000	0.000000	0.000000	0.000000	0.000000	-293.309050	850.554850	1191.582255	-496.769371	850.444538	1185.292392	-0.191522	1.563558	-0.116485	
